<?xml version="1.0" encoding="UTF-8"?>
<svg width="65px" height="65px" viewBox="0 0 65 65" version="1.1" xmlns="http://www.w3.org/2000/svg" xmlns:xlink="http://www.w3.org/1999/xlink">
    <!-- Generator: Sketch 44.1 (41455) - http://www.bohemiancoding.com/sketch -->
    <title>Group 2</title>
    <desc>Created with Sketch.</desc>
    <defs></defs>
    <g id="Symbols" stroke="none" stroke-width="1" fill="none" fill-rule="evenodd">
        <g id="booticon">
            <g id="Group-2">
                <rect id="Rectangle-11" fill="#7952B3" x="0" y="0" width="65" height="65" rx="6"></rect>
                <path d="M35.3190895,47.7541793 L21.9918887,47.7541793 L21.9918887,16.5853775 L35.0166895,16.5853775 C40.9350898,16.5853775 44.49909,19.5661777 44.49909,24.3613779 C44.49909,27.6445781 42.0798899,30.5389783 38.9478897,31.0357783 L38.9478897,31.4245784 C43.13829,31.8133784 46.0326901,34.8373786 46.0326901,38.8981788 C46.0326901,44.3629791 41.9718899,47.7541793 35.3190895,47.7541793 Z M27.564689,21.0133777 L27.564689,29.6965783 L32.9430893,29.6965783 C36.8958896,29.6965783 38.9910897,28.1629782 38.9910897,25.354978 C38.9910897,22.6117778 37.0254896,21.0133777 33.6558894,21.0133777 L27.564689,21.0133777 Z M27.564689,43.3261791 L34.0446894,43.3261791 C38.1486897,43.3261791 40.3302898,41.641379 40.3302898,38.4661788 C40.3302898,35.3557786 38.0838897,33.7141785 33.8286894,33.7141785 L27.564689,33.7141785 L27.564689,43.3261791 Z" id="B" fill="#FFFFFF"></path>
            </g>
        </g>
    </g>
</svg>